<?xml version="1.0" encoding="UTF-8" ?>
<!DOCTYPE svg PUBLIC "-//W3C//DTD SVG 1.1//EN" "http://www.w3.org/Graphics/SVG/1.1/DTD/svg11.dtd">
<svg width="1046pt" height="301pt" viewBox="0 0 1046 301" version="1.1" xmlns="http://www.w3.org/2000/svg">
<path fill="#314254" d=" M 0.00 0.00 L 1046.00 0.00 L 1046.00 301.00 L 0.00 301.00 L 0.00 0.00 Z" />
<path fill="#43cbbf" d=" M 148.54 32.62 C 154.16 30.32 159.81 33.27 165.21 34.76 C 200.10 45.16 235.04 55.35 269.93 65.72 C 247.36 73.05 225.02 81.07 202.49 88.52 C 187.24 93.54 172.17 99.12 156.88 104.04 C 152.28 105.72 147.74 103.20 143.43 101.81 C 116.48 92.72 89.57 83.50 62.63 74.38 C 54.38 71.34 45.81 69.21 37.81 65.54 C 74.64 54.30 111.67 43.73 148.54 32.62 Z" />
<path fill="#28aba1" d=" M 712.87 45.81 C 714.19 43.24 717.44 43.42 719.91 43.29 C 727.96 43.29 736.01 43.30 744.07 43.35 C 759.85 43.38 773.35 58.41 772.65 74.01 C 772.86 81.81 768.86 88.78 764.92 95.21 C 771.18 99.76 777.67 104.62 781.11 111.79 C 786.61 121.89 786.55 134.55 781.63 144.84 C 776.57 153.51 768.76 161.35 758.75 163.81 C 749.36 166.29 739.58 165.14 730.00 165.41 C 724.94 165.26 719.64 166.07 714.79 164.29 C 711.69 162.91 711.96 158.89 711.67 156.06 C 711.64 122.37 711.77 88.68 711.61 54.99 C 711.69 51.92 711.52 48.66 712.87 45.81 Z" />
<path fill="#29aba0" d=" M 848.47 43.81 C 854.53 43.12 860.67 43.13 866.74 43.66 C 888.24 46.32 907.19 61.87 915.13 81.85 C 919.03 91.43 919.27 101.96 918.58 112.13 C 916.73 128.48 907.67 143.72 894.39 153.39 C 872.91 169.99 840.10 169.11 819.49 151.48 C 808.31 142.26 800.04 129.11 797.76 114.71 C 797.18 107.37 797.02 99.91 797.97 92.60 C 802.62 68.12 823.64 47.26 848.47 43.81 Z" />
<path fill="#29aba0" d=" M 1017.79 45.70 C 1020.52 41.85 1027.14 42.71 1028.85 47.11 C 1030.43 49.80 1028.21 52.56 1026.72 54.70 C 1017.56 66.24 1008.55 77.90 999.49 89.52 C 995.62 94.22 991.85 99.00 988.45 104.05 C 995.82 115.01 1004.55 124.98 1012.46 135.55 C 1017.57 142.40 1023.13 148.90 1028.20 155.76 C 1030.89 158.96 1028.55 164.00 1024.73 164.93 C 1020.91 166.57 1017.93 162.81 1015.83 160.18 C 1006.74 147.99 997.08 136.24 987.92 124.11 C 985.50 120.94 982.85 117.96 980.10 115.10 C 972.46 123.56 965.99 132.98 958.85 141.85 C 954.51 147.21 950.40 152.74 946.22 158.21 C 943.92 160.97 941.61 164.26 937.92 165.16 C 934.12 165.37 930.27 161.07 932.03 157.38 C 934.81 151.41 939.65 146.77 943.47 141.50 C 952.75 128.81 963.12 116.95 972.06 104.01 C 959.70 87.38 946.56 71.34 934.11 54.79 C 932.88 52.79 931.18 50.60 931.59 48.12 C 932.56 45.22 935.65 42.63 938.86 43.56 C 942.47 44.81 944.67 48.19 946.97 51.03 C 955.02 61.93 963.53 72.48 971.72 83.27 C 974.36 86.79 977.20 90.16 980.12 93.45 C 993.27 78.03 1005.25 61.62 1017.79 45.70 Z" />
<path fill="#a0bad1" d=" M 346.99 44.71 C 363.38 41.30 381.24 45.23 394.52 55.48 C 396.21 56.97 398.43 58.57 398.54 61.04 C 399.12 65.18 394.05 69.04 390.27 66.98 C 386.44 64.82 383.11 61.84 379.09 59.99 C 366.80 54.18 351.97 54.04 339.58 59.60 C 327.76 65.11 318.20 75.44 313.90 87.77 C 310.13 99.02 310.77 111.64 315.44 122.52 C 320.19 132.75 328.59 141.28 338.71 146.25 C 352.84 152.99 370.44 152.01 383.76 143.77 C 386.28 142.58 386.07 139.45 386.28 137.08 C 386.30 129.84 386.59 122.57 385.72 115.36 C 379.12 115.39 372.52 115.42 365.92 115.42 C 362.95 115.36 359.32 115.07 357.54 112.31 C 354.95 108.98 357.75 103.33 361.95 103.39 C 370.63 103.06 379.32 103.42 388.01 103.24 C 391.16 103.36 395.22 102.70 397.22 105.79 C 398.52 108.66 398.30 111.91 398.33 114.99 C 398.21 124.02 398.32 133.05 398.31 142.09 C 398.37 145.06 397.71 148.31 395.19 150.20 C 373.45 168.09 338.32 166.63 318.39 146.59 C 305.91 135.44 298.72 118.73 299.44 102.00 C 299.03 74.84 320.57 49.77 346.99 44.71 Z" />
<path fill="#a0bad1" d=" M 410.57 50.90 C 410.20 47.58 412.45 43.96 415.95 43.64 C 421.62 43.25 427.32 43.61 433.00 43.51 C 441.74 43.69 450.82 42.53 459.16 45.82 C 466.46 48.50 472.33 54.15 476.74 60.42 C 483.65 70.97 483.92 85.20 478.13 96.30 C 474.36 103.23 468.02 108.27 461.36 112.26 C 469.76 125.31 477.92 138.52 486.19 151.65 C 487.99 154.36 488.80 158.71 486.11 161.12 C 484.48 162.85 481.79 162.87 479.66 162.26 C 477.76 161.16 476.58 159.23 475.39 157.46 C 466.68 143.33 457.87 129.26 448.87 115.31 C 440.15 115.49 431.44 115.30 422.72 115.43 C 422.43 129.58 422.89 143.75 422.51 157.90 C 422.19 162.76 415.16 164.23 412.21 160.78 C 410.48 159.01 410.62 156.35 410.54 154.07 C 410.62 119.68 410.56 85.29 410.57 50.90 Z" />
<path fill="#a0bad1" d=" M 501.93 44.92 C 503.91 43.35 506.57 43.54 508.95 43.47 C 530.99 43.55 553.04 43.50 575.08 43.49 C 578.04 43.30 581.41 44.29 582.70 47.22 C 584.86 50.91 581.10 55.95 577.01 55.53 C 555.25 55.67 533.48 55.43 511.71 55.64 C 511.66 69.39 511.56 83.14 511.74 96.89 C 527.77 97.85 543.86 96.85 559.91 97.40 C 564.18 97.20 566.88 102.95 564.42 106.30 C 562.75 109.20 559.04 109.43 556.07 109.44 C 541.34 109.38 526.61 109.40 511.88 109.41 C 511.50 123.12 511.53 136.84 511.86 150.55 C 533.60 150.65 555.35 150.41 577.09 150.66 C 582.25 150.38 584.42 156.79 581.74 160.50 C 580.39 162.26 578.15 162.64 576.08 162.56 C 553.03 162.50 529.98 162.53 506.93 162.54 C 504.73 162.52 502.11 162.32 500.77 160.32 C 499.64 158.44 499.61 156.18 499.57 154.06 C 499.63 120.01 499.61 85.97 499.58 51.92 C 499.59 49.45 499.80 46.55 501.93 44.92 Z" />
<path fill="#a0bad0" d=" M 595.17 51.63 C 592.89 47.30 598.38 41.95 602.74 43.84 C 604.85 45.17 606.37 47.20 607.79 49.20 C 617.37 63.45 626.62 77.93 636.53 91.94 C 646.41 77.54 655.86 62.85 665.54 48.32 C 666.78 46.58 668.14 44.78 670.14 43.86 C 674.48 42.03 680.29 47.40 677.69 51.78 C 675.46 56.30 672.24 60.22 669.52 64.43 C 661.67 76.31 653.80 88.17 645.77 99.92 C 644.19 102.33 642.40 104.89 642.54 107.92 C 642.42 124.24 642.65 140.58 642.47 156.90 C 642.50 161.82 635.53 164.58 632.15 160.97 C 630.22 159.63 630.50 157.13 630.40 155.09 C 630.44 139.37 630.49 123.65 630.42 107.93 C 630.56 104.88 628.66 102.35 627.10 99.93 C 619.41 88.87 612.20 77.49 604.60 66.37 C 601.46 61.46 597.73 56.89 595.17 51.63 Z" />
<path fill="#314254" d=" M 422.68 55.64 C 431.14 55.60 439.60 55.39 448.06 55.65 C 456.32 56.00 463.63 61.49 467.50 68.59 C 470.32 73.68 470.03 79.81 469.30 85.39 C 467.00 94.57 458.61 102.19 449.04 102.84 C 440.30 103.61 431.44 103.54 422.70 102.75 C 422.58 87.05 422.63 71.34 422.68 55.64 Z" />
<path fill="#304254" d=" M 724.37 55.85 C 730.92 55.52 737.50 55.26 744.06 55.66 C 753.34 55.90 761.03 64.88 760.55 74.01 C 760.67 83.31 752.62 91.53 743.44 92.13 C 737.14 92.49 730.67 92.95 724.48 91.53 C 723.66 89.78 723.76 87.82 723.89 85.95 C 724.80 75.94 724.10 65.88 724.37 55.85 Z" />
<path fill="#314254" d=" M 846.40 56.71 C 859.39 53.92 873.69 55.74 884.85 63.20 C 893.79 69.63 901.34 78.48 904.75 89.08 C 906.79 94.84 906.77 101.02 906.69 107.05 C 906.81 122.66 897.05 137.01 884.30 145.36 C 874.07 152.38 860.97 154.22 848.89 152.21 C 837.28 150.38 826.95 143.34 819.76 134.21 C 806.98 117.87 806.03 93.14 818.22 76.22 C 825.13 66.89 834.80 59.05 846.40 56.71 Z" />
<path fill="#43cbbf" d=" M 26.41 84.87 C 33.57 86.56 40.41 89.27 47.37 91.60 C 79.11 102.33 110.74 113.36 142.54 123.92 C 142.64 167.93 142.72 211.94 142.49 255.96 C 137.69 254.70 132.95 253.17 128.27 251.52 C 97.78 241.10 67.31 230.62 36.77 220.34 C 33.57 219.16 30.07 217.89 28.02 214.98 C 26.07 212.06 26.37 208.39 26.27 205.04 C 26.43 164.99 26.15 124.92 26.41 84.87 Z" />
<path fill="#43cbbf" d=" M 270.76 87.65 C 273.96 86.53 277.24 85.65 280.55 84.91 C 280.63 115.94 280.56 146.97 280.58 178.01 C 280.51 188.44 280.79 198.89 280.35 209.32 C 278.43 203.71 277.15 197.84 274.44 192.54 C 267.28 178.93 253.92 168.60 238.73 165.81 C 221.93 162.40 203.61 168.42 191.94 180.94 C 182.43 190.65 177.25 204.43 178.19 218.02 C 177.78 228.63 182.53 238.41 187.86 247.27 C 180.20 250.73 172.32 253.71 164.26 256.07 C 163.40 249.41 163.76 242.69 163.72 236.00 C 163.69 202.67 163.75 169.34 163.68 136.01 C 163.76 132.16 163.28 128.20 164.37 124.46 C 166.15 123.04 168.37 122.39 170.49 121.66 C 188.13 116.30 205.38 109.75 222.89 103.98 C 238.80 98.40 254.83 93.15 270.76 87.65 Z" />
<path fill="#314254" d=" M 724.34 104.30 C 733.21 104.36 742.10 104.06 750.98 104.40 C 759.03 104.66 766.05 110.09 770.02 116.84 C 772.97 121.95 773.05 128.15 772.37 133.85 C 770.71 144.13 761.16 151.90 751.03 152.92 C 742.18 153.72 733.23 153.44 724.36 152.90 C 724.31 136.70 724.35 120.50 724.34 104.30 Z" />
<path fill="#86d5cf" d=" M 98.85 139.77 C 101.73 138.36 105.37 135.68 108.29 138.53 C 112.20 141.86 117.76 145.99 116.61 151.84 C 114.05 154.86 110.21 156.64 107.63 159.73 C 109.55 156.00 111.81 152.24 112.24 147.99 C 112.46 145.21 109.93 143.27 107.79 142.00 C 104.82 140.14 101.20 141.01 98.07 141.90 C 92.55 143.55 87.11 145.48 81.92 147.97 C 86.28 142.95 93.37 142.90 98.85 139.77 Z" />
<path fill="#d8dbe0" d=" M 98.07 141.90 C 101.20 141.01 104.82 140.14 107.79 142.00 C 109.93 143.27 112.46 145.21 112.24 147.99 C 111.81 152.24 109.55 156.00 107.63 159.73 C 105.19 163.84 103.45 168.38 103.16 173.19 C 105.50 173.69 107.85 174.22 110.19 174.76 C 109.39 176.22 109.20 178.55 107.24 178.90 C 103.64 179.87 99.78 178.99 96.19 180.05 C 93.15 181.69 91.30 184.86 89.65 187.79 C 87.75 190.75 91.38 194.25 89.55 197.08 C 82.23 198.58 75.50 201.83 68.73 204.87 C 64.98 207.01 62.83 211.03 59.32 213.52 C 59.75 210.34 60.51 207.23 61.33 204.13 C 57.27 200.24 52.75 196.23 51.01 190.70 C 48.53 180.10 54.04 168.79 62.82 162.80 C 66.33 160.33 70.70 159.51 74.27 157.16 C 77.39 154.61 78.96 150.68 81.92 147.97 C 87.11 145.48 92.55 143.55 98.07 141.90 Z" />
<path fill="#43cbbf" d=" M 223.30 186.99 C 236.17 184.20 250.29 191.30 255.83 203.20 C 260.45 212.93 259.53 225.29 252.88 233.88 C 248.21 239.75 241.62 244.61 233.99 245.45 C 227.94 245.95 221.48 246.00 216.01 243.02 C 206.09 237.99 198.90 227.29 199.40 215.99 C 198.95 202.17 209.73 189.30 223.30 186.99 Z" />
<path fill="#a1b8cf" d=" M 573.62 196.13 C 575.15 196.54 576.90 196.63 578.12 197.77 C 578.86 202.24 578.39 206.80 578.45 211.31 C 580.71 211.77 583.08 211.97 585.23 212.90 C 585.91 213.90 586.38 215.03 586.92 216.12 C 584.10 216.69 581.27 217.20 578.43 217.61 C 578.71 224.26 578.07 230.95 578.72 237.58 C 579.41 242.21 584.85 242.76 588.48 243.84 C 588.51 244.77 588.59 246.63 588.62 247.56 C 583.77 248.85 577.54 247.88 574.91 243.15 C 571.56 236.22 573.13 228.33 573.19 220.96 C 573.46 217.93 570.26 216.94 568.27 215.48 C 568.27 215.00 568.27 214.05 568.27 213.57 C 569.80 212.37 572.46 211.93 572.87 209.74 C 573.64 205.24 573.16 200.65 573.62 196.13 Z" />
<path fill="#9eb9ce" d=" M 873.80 195.97 C 875.03 196.39 876.30 196.81 877.56 197.22 C 877.80 212.10 877.67 226.99 877.65 241.87 C 879.33 242.66 881.03 243.45 882.72 244.26 C 882.66 245.38 882.62 246.49 882.59 247.62 C 879.38 248.02 875.87 249.01 872.85 247.32 C 872.37 245.27 872.41 243.15 872.38 241.07 C 872.43 228.36 872.43 215.64 872.37 202.92 C 872.25 200.51 872.93 198.19 873.80 195.97 Z" />
<path fill="#a1b8cd" d=" M 929.61 196.58 C 931.18 196.58 932.76 196.58 934.34 196.60 C 934.60 201.61 934.62 206.63 934.67 211.65 C 937.21 212.00 939.78 212.35 942.35 212.66 C 942.42 213.79 942.51 214.93 942.62 216.06 C 939.94 216.66 937.26 217.19 934.59 217.71 C 934.82 224.29 934.08 230.91 934.91 237.45 C 935.53 242.18 940.95 242.79 944.65 243.80 C 944.66 244.75 944.68 246.65 944.69 247.60 C 938.62 249.55 930.86 246.22 929.70 239.58 C 928.92 232.56 929.53 225.47 929.26 218.43 C 927.05 217.26 924.92 215.85 923.56 213.71 C 925.45 212.76 927.39 211.88 929.33 211.01 C 929.27 206.20 929.29 201.38 929.61 196.58 Z" />
<path fill="#a1b9cd" d=" M 326.88 199.76 C 330.16 196.81 334.77 196.57 338.95 196.22 C 339.50 197.08 340.59 198.81 341.13 199.67 C 338.02 201.30 334.54 202.03 331.38 203.52 C 328.21 205.39 327.49 209.44 327.42 212.83 C 330.64 214.08 334.16 214.17 337.57 214.55 C 337.59 215.53 337.64 217.49 337.66 218.47 C 334.30 218.91 330.93 219.28 327.55 219.53 C 327.48 228.94 327.89 238.37 327.27 247.76 C 325.67 247.70 324.08 247.64 322.48 247.58 C 322.25 240.02 322.37 232.46 322.39 224.91 C 322.27 223.44 322.50 221.85 321.80 220.50 C 320.45 219.26 318.83 218.39 317.31 217.40 C 317.36 216.53 317.41 215.67 317.46 214.81 C 319.01 214.30 320.57 213.79 322.14 213.28 C 322.35 208.49 322.84 202.99 326.88 199.76 Z" />
<path fill="#a1b8ce" d=" M 723.81 195.95 C 725.70 196.74 728.96 197.13 728.40 199.96 C 728.48 210.33 728.51 220.70 728.38 231.07 C 728.09 240.16 720.02 247.94 711.02 248.33 C 703.45 248.64 695.79 243.95 693.19 236.73 C 691.09 230.16 691.96 222.14 697.31 217.32 C 703.71 210.03 715.20 211.13 722.70 216.05 C 722.68 209.33 722.35 202.56 723.81 195.95 Z" />
<path fill="#a3b6c7" d=" M 952.28 201.43 C 954.26 201.44 956.25 201.49 958.25 201.56 C 958.36 202.92 958.50 204.27 958.65 205.63 C 957.34 206.44 956.02 207.25 954.74 208.06 C 952.62 206.43 952.04 203.98 952.28 201.43 Z" />
<path fill="#a2b8ce" d=" M 354.67 212.88 C 360.50 211.64 367.46 211.51 372.14 215.82 C 377.81 220.11 380.74 227.87 378.66 234.76 C 376.56 242.49 369.00 248.27 361.00 248.34 C 352.65 248.27 344.75 241.91 343.09 233.68 C 340.98 225.13 346.57 215.87 354.67 212.88 Z" />
<path fill="#9fb8ce" d=" M 384.46 212.44 C 385.85 212.40 387.24 212.37 388.64 212.33 C 389.05 213.73 389.45 215.13 389.86 216.54 C 392.48 214.88 395.11 212.98 398.23 212.44 C 402.36 211.86 406.55 212.34 410.57 213.35 C 410.64 214.82 410.72 216.30 410.79 217.77 C 406.46 217.75 401.99 216.76 397.75 217.99 C 393.12 219.58 390.00 224.14 389.64 228.95 C 389.23 235.16 389.65 241.40 389.33 247.63 C 387.71 247.65 386.09 247.67 384.48 247.68 C 384.16 235.94 384.13 224.18 384.46 212.44 Z" />
<path fill="#9fb7cd" d=" M 418.05 220.05 C 420.93 216.22 425.00 212.67 430.00 212.34 C 434.05 212.12 438.46 211.83 442.10 213.98 C 448.50 217.58 452.83 225.16 451.06 232.55 C 440.97 233.10 430.82 231.98 420.79 233.34 C 422.58 238.16 426.64 242.58 432.09 242.70 C 436.65 243.38 440.29 240.01 444.59 239.29 C 446.05 240.56 446.27 243.35 444.51 244.46 C 438.86 248.91 430.47 249.68 424.31 245.79 C 420.13 243.07 416.34 238.99 415.52 233.90 C 414.95 229.21 415.08 223.99 418.05 220.05 Z" />
<path fill="#a2b8cd" d=" M 467.97 213.05 C 474.78 211.07 482.83 212.02 487.78 217.55 C 487.38 218.43 486.58 220.19 486.19 221.08 C 481.62 219.67 477.27 216.57 472.28 217.42 C 465.02 218.40 459.87 226.71 462.27 233.64 C 463.59 238.48 468.00 242.43 473.09 242.70 C 477.89 243.17 482.06 240.27 486.50 238.97 C 486.53 240.50 486.66 242.05 486.47 243.58 C 484.24 246.03 480.97 247.24 477.82 247.97 C 467.59 250.22 456.42 241.55 456.38 231.02 C 455.62 223.26 460.85 215.81 467.97 213.05 Z" />
<path fill="#a0b8cf" d=" M 492.38 230.00 C 491.94 220.23 501.12 211.00 511.02 212.19 C 517.80 211.63 523.93 216.22 527.01 221.96 C 528.79 225.34 528.63 229.26 528.68 232.97 C 528.66 237.83 528.66 242.70 528.50 247.56 C 527.10 247.63 525.71 247.71 524.32 247.78 C 523.88 246.37 523.46 244.97 523.06 243.55 C 519.71 245.77 516.10 247.88 512.02 248.27 C 501.93 249.21 491.90 240.28 492.38 230.00 Z" />
<path fill="#a0b8cd" d=" M 542.47 212.72 C 548.86 211.46 556.36 211.86 561.04 217.00 C 562.88 218.38 562.40 220.82 562.58 222.82 C 557.14 222.38 553.75 216.53 548.03 217.30 C 543.80 216.90 539.26 219.57 539.06 224.13 C 544.75 226.09 550.50 227.85 556.17 229.86 C 558.80 230.84 561.79 232.38 562.56 235.32 C 562.94 237.92 563.04 241.05 560.99 243.03 C 556.06 248.26 547.74 249.77 541.23 246.77 C 537.74 245.49 535.24 242.64 532.92 239.88 C 534.17 239.16 535.21 237.59 536.74 237.59 C 539.95 239.11 542.44 242.24 546.14 242.63 C 548.94 242.87 552.00 242.92 554.48 241.40 C 556.33 240.35 557.12 238.26 558.13 236.50 C 551.93 233.47 545.05 232.21 538.76 229.43 C 535.54 228.12 532.96 224.66 533.70 221.08 C 534.83 216.98 538.48 213.91 542.47 212.72 Z" />
<path fill="#a1b8ce" d=" M 614.73 220.79 C 617.51 216.60 621.75 212.72 627.00 212.35 C 631.05 212.14 635.47 211.79 639.11 213.96 C 644.12 216.86 648.19 222.02 648.48 227.97 C 648.77 234.56 648.62 241.16 648.34 247.74 C 646.98 247.72 645.63 247.70 644.28 247.68 C 643.71 246.36 643.15 245.04 642.60 243.72 C 639.43 245.91 635.96 247.91 632.06 248.27 C 623.44 249.15 614.89 242.85 612.77 234.54 C 611.96 229.93 612.04 224.80 614.73 220.79 Z" />
<path fill="#a0b8cf" d=" M 653.51 215.06 C 653.25 213.11 655.39 212.51 656.61 211.52 C 657.65 212.76 658.68 214.01 659.70 215.28 C 664.65 212.15 670.83 211.34 676.45 212.90 C 682.83 215.45 687.34 222.05 687.40 228.94 C 687.54 235.18 687.61 241.45 687.01 247.68 C 685.42 247.69 683.85 247.70 682.29 247.71 C 681.05 240.31 682.26 232.78 681.33 225.37 C 679.64 217.55 668.67 214.59 662.97 219.95 C 659.70 222.58 658.76 226.95 658.67 230.94 C 658.58 236.51 658.73 242.08 658.50 247.65 C 656.87 247.65 655.25 247.64 653.63 247.63 C 653.33 236.78 653.37 225.91 653.51 215.06 Z" />
<path fill="#a0b8cd" d=" M 751.42 231.02 C 750.60 222.84 756.46 214.79 764.26 212.59 C 769.27 211.95 774.95 211.60 779.30 214.66 C 783.67 217.68 787.37 222.44 787.53 227.95 C 787.81 234.50 787.60 241.06 787.47 247.61 C 786.05 247.66 784.64 247.71 783.24 247.77 C 782.84 246.37 782.48 244.98 782.13 243.58 C 778.74 245.77 775.09 247.83 771.01 248.27 C 761.25 249.23 751.54 240.92 751.42 231.02 Z" />
<path fill="#a0b8ce" d=" M 798.95 214.95 C 803.96 212.27 809.91 211.37 815.43 212.89 C 821.63 215.15 826.09 221.36 826.38 227.94 C 826.61 234.52 826.57 241.12 826.13 247.70 C 824.55 247.69 822.98 247.69 821.42 247.69 C 820.15 240.29 821.28 232.77 820.36 225.37 C 818.57 217.29 806.95 214.44 801.45 220.46 C 798.31 223.39 797.89 227.93 797.73 231.97 C 797.65 237.20 797.79 242.43 797.64 247.66 C 796.01 247.67 794.38 247.68 792.77 247.70 C 792.33 241.14 792.54 234.56 792.50 228.00 C 792.52 222.51 791.97 216.90 793.61 211.56 C 795.41 212.63 797.20 213.76 798.95 214.95 Z" />
<path fill="#a0b8ce" d=" M 832.90 221.84 C 836.14 216.18 842.12 211.42 849.00 212.20 C 858.52 211.11 867.05 219.68 867.40 228.93 C 867.57 235.36 867.89 241.87 866.82 248.24 C 864.30 247.90 862.24 246.46 860.68 244.53 C 856.79 246.66 852.54 248.71 847.99 248.31 C 840.52 247.65 833.48 242.03 831.67 234.68 C 831.01 230.43 830.84 225.76 832.90 221.84 Z" />
<path fill="#9fb8ce" d=" M 888.08 212.43 C 889.57 212.39 891.08 212.36 892.60 212.33 C 896.34 220.85 899.72 229.53 903.41 238.08 C 907.56 229.71 910.66 220.87 914.45 212.34 C 915.93 212.37 917.43 212.40 918.94 212.44 C 918.59 217.69 916.14 222.40 914.11 227.15 C 908.68 239.37 904.37 252.09 898.28 264.00 C 896.86 263.39 895.45 262.77 894.06 262.15 C 895.59 257.14 897.94 252.45 899.65 247.51 C 900.66 245.14 899.35 242.73 898.56 240.51 C 895.84 233.90 893.06 227.31 890.20 220.76 C 889.00 218.13 888.38 215.29 888.08 212.43 Z" />
<path fill="#a0b9cc" d=" M 953.03 212.30 C 954.51 212.33 956.01 212.36 957.52 212.40 C 958.70 224.13 958.15 235.90 957.61 247.65 C 956.00 247.68 954.41 247.71 952.83 247.74 C 952.51 235.94 952.15 224.08 953.03 212.30 Z" />
<path fill="#a1b8ce" d=" M 977.60 212.81 C 983.67 211.65 991.18 211.55 995.65 216.57 C 997.39 217.81 996.21 221.45 993.94 220.62 C 990.19 219.83 986.99 216.93 982.99 217.30 C 975.64 217.19 969.76 224.86 971.06 231.95 C 971.80 237.72 977.08 242.86 983.02 242.74 C 987.54 242.86 991.43 240.16 995.67 239.00 C 995.57 240.65 996.63 242.76 995.07 244.01 C 987.67 250.88 974.83 249.06 969.06 240.94 C 961.56 231.77 966.31 216.28 977.60 212.81 Z" />
<path fill="#a1b8ce" d=" M 1006.89 214.13 C 1010.78 211.80 1015.52 212.09 1019.88 212.39 C 1024.67 212.80 1028.34 216.29 1031.15 219.89 C 1030.10 220.91 1029.07 221.93 1028.06 222.96 C 1024.08 219.86 1019.55 216.38 1014.15 217.38 C 1010.83 217.40 1005.57 220.29 1007.76 224.13 C 1013.96 227.46 1021.32 228.00 1027.42 231.57 C 1031.62 233.93 1031.64 240.21 1028.38 243.37 C 1023.92 248.02 1016.58 249.47 1010.57 247.35 C 1006.53 246.33 1003.69 243.14 1001.07 240.14 C 1002.02 239.09 1002.97 238.05 1003.95 237.02 C 1008.01 240.04 1012.51 243.62 1017.95 242.69 C 1021.71 242.83 1024.35 239.95 1025.97 236.88 C 1020.16 233.35 1013.36 232.26 1007.12 229.80 C 1004.21 228.76 1001.49 226.26 1001.53 222.97 C 1001.09 219.19 1003.70 215.81 1006.89 214.13 Z" />
<path fill="#314254" d=" M 357.43 217.68 C 364.78 215.44 373.74 221.12 373.62 229.07 C 374.02 233.21 372.30 237.42 369.07 240.05 C 365.68 243.07 360.71 243.19 356.51 242.18 C 350.70 239.98 347.10 233.38 348.52 227.29 C 349.39 222.77 353.01 218.91 357.43 217.68 Z" />
<path fill="#314355" d=" M 420.91 227.30 C 422.19 221.35 427.82 216.75 433.98 217.30 C 439.80 217.17 444.26 222.02 445.88 227.24 C 437.55 227.52 429.23 227.47 420.91 227.30 Z" />
<path fill="#324254" d=" M 506.57 217.78 C 512.19 216.03 518.55 218.42 521.50 223.53 C 525.38 229.24 523.01 237.75 517.11 241.09 C 513.96 243.01 509.99 243.08 506.50 242.24 C 500.25 240.22 495.96 232.57 498.34 226.27 C 499.59 222.40 502.76 219.17 506.57 217.78 Z" />
<path fill="#314254" d=" M 626.57 217.77 C 633.18 215.64 640.54 219.70 642.72 226.16 C 645.61 234.05 638.42 243.52 630.01 242.73 C 622.30 242.96 615.95 234.54 617.94 227.17 C 619.05 222.90 622.41 219.25 626.57 217.77 Z" />
<path fill="#314254" d=" M 706.48 217.72 C 710.61 216.75 715.46 217.23 718.57 220.40 C 724.30 225.03 724.29 234.97 718.58 239.61 C 713.14 244.87 702.91 243.48 699.28 236.73 C 694.74 230.03 698.72 219.79 706.48 217.72 Z" />
<path fill="#314254" d=" M 766.44 217.56 C 772.93 215.85 779.78 220.09 781.82 226.31 C 784.59 234.18 777.35 243.55 769.02 242.74 C 761.08 242.91 754.51 233.86 757.30 226.38 C 758.62 222.21 762.14 218.60 766.44 217.56 Z" />
<path fill="#314255" d=" M 845.57 217.73 C 853.27 215.21 862.51 221.71 861.79 230.00 C 862.27 235.62 858.00 240.93 852.72 242.42 C 848.95 243.00 844.57 243.05 841.51 240.42 C 837.59 237.32 835.52 231.96 836.80 227.06 C 837.79 222.67 841.23 218.96 845.57 217.73 Z" />
<path fill="#45cabf" d=" M 245.39 262.86 C 251.70 259.75 257.70 256.07 263.41 251.98 C 266.72 258.25 269.99 264.54 273.14 270.90 C 274.68 274.14 276.26 277.99 274.42 281.47 C 272.71 286.00 267.75 288.49 263.05 287.76 C 259.32 287.92 256.82 284.71 255.14 281.81 C 251.60 275.64 248.56 269.21 245.39 262.86 Z" />
</svg>
